<svg width="32" height="32" viewBox="0 0 32 32" fill="none" xmlns="http://www.w3.org/2000/svg">
<path d="M14.2222 1.0264C15.3223 0.391262 16.6777 0.391262 17.7778 1.0264L28.0786 6.9736C29.1787 7.60874 29.8564 8.78252 29.8564 10.0528V21.9472C29.8564 23.2175 29.1787 24.3913 28.0786 25.0264L17.7778 30.9736C16.6777 31.6087 15.3223 31.6087 14.2222 30.9736L3.92137 25.0264C2.82128 24.3913 2.14359 23.2175 2.14359 21.9472V10.0528C2.14359 8.78252 2.82128 7.60874 3.92137 6.9736L14.2222 1.0264Z" fill="#9DE500"/>
<path d="M10.7567 22.254C9.64711 22.254 8.73314 22.0146 8.01482 21.5357C7.30233 21.0568 6.86433 20.3911 6.70081 19.5384L8.01482 19.3194C8.15498 19.8567 8.47326 20.2859 8.96966 20.6071C9.47191 20.9225 10.091 21.0802 10.8268 21.0802C11.5451 21.0802 12.1116 20.9313 12.5262 20.6334C12.9409 20.3297 13.1482 19.918 13.1482 19.3983C13.1482 19.1063 13.0811 18.8697 12.9467 18.6887C12.8183 18.5018 12.5525 18.3295 12.1496 18.1719C11.7466 18.0142 11.1451 17.8273 10.345 17.6112C9.48651 17.3776 8.8149 17.144 8.33018 16.9104C7.84545 16.6768 7.50089 16.4082 7.29649 16.1045C7.09209 15.795 6.98989 15.4183 6.98989 14.9744C6.98989 14.4371 7.14173 13.967 7.44541 13.5641C7.74909 13.1553 8.16958 12.8399 8.70686 12.618C9.24414 12.3902 9.86903 12.2763 10.5815 12.2763C11.294 12.2763 11.9306 12.3931 12.4912 12.6267C13.0577 12.8545 13.5132 13.1757 13.8578 13.5903C14.2023 14.005 14.4067 14.4868 14.471 15.0357L13.157 15.2723C13.0694 14.7175 12.792 14.2795 12.3248 13.9583C11.8634 13.6312 11.2765 13.4619 10.564 13.4502C9.89239 13.4327 9.34635 13.5611 8.92586 13.8356C8.50538 14.1043 8.29514 14.4634 8.29514 14.9131C8.29514 15.1642 8.37106 15.3803 8.5229 15.5614C8.67474 15.7366 8.94922 15.903 9.34635 16.0607C9.74931 16.2184 10.3216 16.3906 11.0633 16.5775C11.9335 16.7994 12.6168 17.033 13.1132 17.2783C13.6096 17.5236 13.9629 17.8127 14.1731 18.1456C14.3834 18.4785 14.4885 18.8902 14.4885 19.3807C14.4885 20.2743 14.1556 20.978 13.4899 21.4919C12.8299 22 11.9189 22.254 10.7567 22.254ZM19.6813 22.2628C18.7995 22.2628 18.0461 22.0438 17.4212 21.6058C16.7963 21.162 16.3174 20.5633 15.9846 19.81C15.6517 19.0566 15.4852 18.2069 15.4852 17.2608C15.4852 16.3206 15.6488 15.4738 15.9758 14.7204C16.3087 13.967 16.7846 13.3713 17.4037 12.9333C18.0227 12.4953 18.7644 12.2763 19.6287 12.2763C20.5164 12.2763 21.264 12.4924 21.8713 12.9246C22.4787 13.3567 22.9371 13.9495 23.2467 14.7029C23.562 15.4504 23.7197 16.303 23.7197 17.2608C23.7197 18.2011 23.5649 19.0508 23.2554 19.81C22.9459 20.5633 22.4904 21.162 21.8888 21.6058C21.2873 22.0438 20.5515 22.2628 19.6813 22.2628ZM19.8127 21.0627C20.4843 21.0627 21.0391 20.8992 21.4771 20.5721C21.9151 20.2451 22.2422 19.7954 22.4582 19.2231C22.6743 18.6449 22.7824 17.9908 22.7824 17.2608C22.7824 16.5191 22.6743 15.865 22.4582 15.2985C22.2422 14.7262 21.9151 14.2795 21.4771 13.9583C21.045 13.6371 20.4989 13.4765 19.839 13.4765C19.1615 13.4765 18.6009 13.6429 18.1571 13.9758C17.7132 14.3087 17.3832 14.7613 17.1672 15.3336C16.9569 15.9059 16.8518 16.5483 16.8518 17.2608C16.8518 17.9791 16.9598 18.6274 17.1759 19.2055C17.3978 19.7779 17.7278 20.2305 18.1658 20.5633C18.6038 20.8962 19.1528 21.0627 19.8127 21.0627ZM22.7824 22V14.8781H22.6422V9.38551H23.9387V22H22.7824Z" fill="#0B0B0B"/>
</svg>
