<svg width="28" height="29" viewBox="0 0 28 29" fill="none" xmlns="http://www.w3.org/2000/svg">
<g clip-path="url(#clip0_4093_144)">
<g clip-path="url(#clip1_4093_144)">
<g clip-path="url(#clip2_4093_144)">
<path d="M13.984 18.8551L17.6353 23.0064C18.988 24.5443 19.6644 25.3133 20.3723 25.1261C21.0803 24.9389 21.3232 23.9269 21.8087 21.9027L24.5021 10.6745C25.2499 7.55695 25.6238 5.99821 24.7926 5.22938C23.9615 4.46055 22.5208 5.03253 19.6395 6.1765L6.2717 11.4839C3.9672 12.3988 2.81495 12.8564 2.7418 13.6425C2.73431 13.7229 2.73418 13.8039 2.74143 13.8844C2.81216 14.6709 3.96301 15.1322 6.26471 16.0547C7.30759 16.4728 7.82905 16.6819 8.20291 17.0822C8.24495 17.1271 8.28536 17.1738 8.32409 17.2219C8.66856 17.6499 8.81557 18.2117 9.10956 19.3351L9.65977 21.4377C9.94585 22.5309 10.0889 23.0775 10.4635 23.1521C10.8381 23.2266 11.1644 22.7733 11.8168 21.8668L13.984 18.8551ZM13.984 18.8551L13.6261 18.4821C13.2186 18.0573 13.0149 17.8451 13.0149 17.5813C13.0149 17.3175 13.2186 17.1051 13.6261 16.6805L17.6507 12.486" stroke="white" stroke-width="1.44828" stroke-linecap="round" stroke-linejoin="round"/>
</g>
</g>
</g>
<defs>
<clipPath id="clip0_4093_144">
<rect width="28" height="28" fill="white" transform="translate(0 0.919922)"/>
</clipPath>
<clipPath id="clip1_4093_144">
<rect width="28" height="28" fill="white" transform="translate(0 0.919922)"/>
</clipPath>
<clipPath id="clip2_4093_144">
<rect width="28" height="28" fill="white" transform="translate(0 0.919922)"/>
</clipPath>
</defs>
</svg>
