<svg width="28" height="29" viewBox="0 0 28 29" fill="none" xmlns="http://www.w3.org/2000/svg">
<g clip-path="url(#clip0_4093_132)">
<g clip-path="url(#clip1_4093_132)">
<g clip-path="url(#clip2_4093_132)">
<path d="M14.0004 26.2806C20.2215 26.2806 25.2648 21.2374 25.2648 15.0163C25.2648 8.79518 20.2215 3.75195 14.0004 3.75195C7.77932 3.75195 2.73608 8.79518 2.73608 15.0163C2.73608 16.5696 3.05045 18.0493 3.61901 19.3955C3.93324 20.1395 4.09036 20.5115 4.10981 20.7926C4.12927 21.0738 4.04651 21.3831 3.88102 22.0016L2.73608 26.2806L7.01516 25.1357C7.6337 24.9703 7.94297 24.8875 8.22411 24.907C8.50525 24.9264 8.87726 25.0835 9.62126 25.3978C10.9674 25.9663 12.4472 26.2806 14.0004 26.2806Z" stroke="white" stroke-width="1.44828" stroke-linejoin="round"/>
<path d="M10.1562 15.441L11.1372 14.2225C11.5507 13.709 12.0618 13.2309 12.1019 12.5471C12.1119 12.3744 11.9905 11.599 11.7473 10.0482C11.6519 9.43877 11.0829 9.38379 10.59 9.38379C9.94773 9.38379 9.6266 9.38379 9.3077 9.52946C8.90465 9.71356 8.49085 10.2312 8.40005 10.6649C8.3282 11.0081 8.38159 11.2445 8.48838 11.7174C8.94192 13.726 10.0059 15.7097 11.6558 17.3595C13.3057 19.0094 15.2894 20.0734 17.2979 20.5269C17.7708 20.6337 18.0072 20.6871 18.3504 20.6153C18.7841 20.5245 19.3018 20.1108 19.4859 19.7076C19.6316 19.3887 19.6316 19.0676 19.6316 18.4254C19.6316 17.9325 19.5765 17.3635 18.9671 17.2679C17.4163 17.0249 16.641 16.9034 16.4681 16.9135C15.7845 16.9535 15.3063 17.4646 14.7928 17.8781L13.5744 18.8592" stroke="white" stroke-width="1.44828"/>
</g>
</g>
</g>
<defs>
<clipPath id="clip0_4093_132">
<rect width="28" height="28" fill="white" transform="translate(0 0.919922)"/>
</clipPath>
<clipPath id="clip1_4093_132">
<rect width="28" height="28" fill="white" transform="translate(0 0.919922)"/>
</clipPath>
<clipPath id="clip2_4093_132">
<rect width="28" height="28" fill="white" transform="translate(0 0.919922)"/>
</clipPath>
</defs>
</svg>
