<svg width="114" height="35" viewBox="0 0 114 35" fill="none" xmlns="http://www.w3.org/2000/svg">
<g clip-path="url(#clip0_4091_52)">
<path d="M15.8701 2.19922C16.6068 1.77392 17.5041 1.7469 18.2607 2.11914L18.4092 2.19922L29.4443 8.57031C30.23 9.02391 30.7139 9.86236 30.7139 10.7695V23.5107C30.7139 24.4179 30.23 25.2564 29.4443 25.71L18.4092 32.0811C17.6236 32.5344 16.6556 32.5346 15.8701 32.0811L4.83594 25.71C4.05029 25.2564 3.56641 24.4179 3.56641 23.5107V10.7695C3.56641 9.91911 3.99098 9.12836 4.69141 8.65918L4.83594 8.57031L15.8701 2.19922Z" stroke="#9DE500" stroke-width="2.53926"/>
<path d="M12.1093 23.9292C11.0792 23.9292 10.2306 23.7069 9.5637 23.2623C8.90222 22.8177 8.49557 22.1996 8.34376 21.408L9.5637 21.2047C9.69383 21.7035 9.98933 22.102 10.4502 22.4002C10.9165 22.693 11.4912 22.8394 12.1744 22.8394C12.8413 22.8394 13.3672 22.7011 13.7522 22.4246C14.1372 22.1427 14.3296 21.7604 14.3296 21.2779C14.3296 21.0068 14.2673 20.7872 14.1426 20.6191C14.0233 20.4456 13.7766 20.2856 13.4025 20.1392C13.0284 19.9928 12.4699 19.8193 11.7271 19.6187C10.93 19.4018 10.3065 19.185 9.85649 18.9681C9.40647 18.7512 9.08657 18.5018 8.8968 18.2199C8.70703 17.9325 8.61214 17.5828 8.61214 17.1707C8.61214 16.6719 8.75312 16.2354 9.03506 15.8613C9.317 15.4817 9.70739 15.189 10.2062 14.9829C10.705 14.7715 11.2852 14.6657 11.9467 14.6657C12.6082 14.6657 13.1992 14.7742 13.7197 14.9911C14.2456 15.2025 14.6685 15.5007 14.9884 15.8857C15.3083 16.2706 15.4981 16.718 15.5577 17.2276L14.3378 17.4472C14.2564 16.9321 13.9989 16.5255 13.5651 16.2273C13.1368 15.9236 12.5919 15.7664 11.9304 15.7556C11.3069 15.7393 10.7999 15.8586 10.4095 16.1134C10.0192 16.3628 9.82396 16.6963 9.82396 17.1138C9.82396 17.3469 9.89445 17.5475 10.0354 17.7156C10.1764 17.8783 10.4312 18.0328 10.7999 18.1792C11.174 18.3256 11.7054 18.4855 12.394 18.659C13.2019 18.8651 13.8362 19.082 14.2971 19.3097C14.758 19.5374 15.086 19.8058 15.2812 20.1148C15.4764 20.4239 15.574 20.8061 15.574 21.2616C15.574 22.0912 15.2649 22.7445 14.6468 23.2216C14.0341 23.6934 13.1883 23.9292 12.1093 23.9292ZM20.3951 23.9373C19.5764 23.9373 18.8769 23.734 18.2968 23.3274C17.7166 22.9153 17.272 22.3595 16.963 21.6601C16.6539 20.9607 16.4994 20.1718 16.4994 19.2934C16.4994 18.4205 16.6512 17.6343 16.9548 16.9348C17.2639 16.2354 17.7058 15.6824 18.2805 15.2757C18.8552 14.8691 19.5438 14.6657 20.3463 14.6657C21.1704 14.6657 21.8644 14.8663 22.4283 15.2676C22.9922 15.6688 23.4178 16.2191 23.7052 16.9186C23.998 17.6126 24.1444 18.4042 24.1444 19.2934C24.1444 20.1663 24.0007 20.9553 23.7133 21.6601C23.426 22.3595 23.0031 22.9153 22.4446 23.3274C21.8861 23.734 21.203 23.9373 20.3951 23.9373ZM20.5171 22.8231C21.1406 22.8231 21.6557 22.6713 22.0623 22.3677C22.469 22.064 22.7726 21.6466 22.9732 21.1152C23.1739 20.5784 23.2742 19.9712 23.2742 19.2934C23.2742 18.6048 23.1739 17.9976 22.9732 17.4716C22.7726 16.9403 22.469 16.5255 22.0623 16.2273C21.6611 15.9291 21.1542 15.78 20.5415 15.78C19.9125 15.78 19.392 15.9345 18.9799 16.2435C18.5679 16.5526 18.2615 16.9728 18.0609 17.5041C17.8657 18.0355 17.7681 18.6319 17.7681 19.2934C17.7681 19.9603 17.8684 20.5622 18.069 21.0989C18.2751 21.6303 18.5814 22.0505 18.9881 22.3595C19.3947 22.6686 19.9044 22.8231 20.5171 22.8231ZM23.2742 23.6934V17.0812H23.144V11.9818H24.3477V23.6934H23.2742Z" fill="white"/>
<path d="M50.79 25.4396C49.77 25.4396 48.85 25.2663 48.03 24.9196C47.2167 24.573 46.5434 24.0796 46.01 23.4396C45.4834 22.793 45.14 22.0296 44.98 21.1496L46.82 20.8596C47.0534 21.7663 47.5367 22.4763 48.27 22.9896C49.01 23.4963 49.88 23.7496 50.88 23.7496C51.5267 23.7496 52.11 23.6496 52.63 23.4496C53.1567 23.243 53.5734 22.9496 53.88 22.5696C54.1867 22.1896 54.34 21.7396 54.34 21.2196C54.34 20.8996 54.2834 20.6263 54.17 20.3996C54.0634 20.1663 53.9134 19.9696 53.72 19.8096C53.5334 19.643 53.32 19.503 53.08 19.3896C52.84 19.2763 52.59 19.183 52.33 19.1096L48.66 18.0196C48.26 17.8996 47.8734 17.7496 47.5 17.5696C47.1267 17.383 46.7934 17.153 46.5 16.8796C46.2067 16.5996 45.9734 16.2663 45.8 15.8796C45.6267 15.4863 45.54 15.023 45.54 14.4896C45.54 13.6363 45.76 12.9096 46.2 12.3096C46.6467 11.703 47.25 11.2396 48.01 10.9196C48.77 10.5996 49.6267 10.443 50.58 10.4496C51.5467 10.4563 52.41 10.6296 53.17 10.9696C53.9367 11.303 54.57 11.783 55.07 12.4096C55.5767 13.0363 55.9167 13.7863 56.09 14.6596L54.2 14.9896C54.1 14.403 53.8767 13.8996 53.53 13.4796C53.19 13.053 52.7634 12.7263 52.25 12.4996C51.7367 12.2663 51.1734 12.1463 50.56 12.1396C49.9734 12.133 49.4434 12.2263 48.97 12.4196C48.4967 12.613 48.12 12.883 47.84 13.2296C47.56 13.5696 47.42 13.963 47.42 14.4096C47.42 14.8496 47.5467 15.2063 47.8 15.4796C48.0534 15.7463 48.3634 15.9596 48.73 16.1196C49.1034 16.273 49.4667 16.3996 49.82 16.4996L52.56 17.2896C52.8734 17.3763 53.2334 17.4963 53.64 17.6496C54.0534 17.803 54.4534 18.0196 54.84 18.2996C55.2267 18.573 55.5467 18.9396 55.8 19.3996C56.0534 19.853 56.18 20.4263 56.18 21.1196C56.18 21.813 56.04 22.4296 55.76 22.9696C55.4867 23.5096 55.1034 23.963 54.61 24.3296C54.1167 24.6896 53.5434 24.963 52.89 25.1496C52.2367 25.343 51.5367 25.4396 50.79 25.4396ZM62.4777 25.4396C61.4177 25.4396 60.491 25.2063 59.6977 24.7396C58.911 24.2663 58.2977 23.6096 57.8577 22.7696C57.4177 21.923 57.1977 20.9363 57.1977 19.8096C57.1977 18.6296 57.4144 17.6096 57.8477 16.7496C58.281 15.883 58.8844 15.2163 59.6577 14.7496C60.4377 14.2763 61.351 14.0396 62.3977 14.0396C63.4844 14.0396 64.4077 14.2896 65.1677 14.7896C65.9344 15.2896 66.5077 16.003 66.8877 16.9296C67.2744 17.8563 67.441 18.9596 67.3877 20.2396H65.5877V19.5996C65.5677 18.273 65.2977 17.283 64.7777 16.6296C64.2577 15.9696 63.4844 15.6396 62.4577 15.6396C61.3577 15.6396 60.521 15.993 59.9477 16.6996C59.3744 17.4063 59.0877 18.4196 59.0877 19.7396C59.0877 21.013 59.3744 21.9996 59.9477 22.6996C60.521 23.3996 61.3377 23.7496 62.3977 23.7496C63.111 23.7496 63.731 23.5863 64.2577 23.2596C64.7844 22.933 65.1977 22.463 65.4977 21.8496L67.2077 22.4396C66.7877 23.393 66.1544 24.133 65.3077 24.6596C64.4677 25.1796 63.5244 25.4396 62.4777 25.4396ZM58.4877 20.2396V18.8096H66.4677V20.2396H58.4877ZM76.5311 25.1396V19.7296C76.5311 19.2163 76.4845 18.723 76.3911 18.2496C76.3045 17.7763 76.1478 17.353 75.9211 16.9796C75.7011 16.5996 75.4011 16.2996 75.0211 16.0796C74.6478 15.8596 74.1745 15.7496 73.6011 15.7496C73.1545 15.7496 72.7478 15.8263 72.3811 15.9796C72.0211 16.1263 71.7111 16.353 71.4511 16.6596C71.1911 16.9663 70.9878 17.353 70.8411 17.8196C70.7011 18.2796 70.6311 18.823 70.6311 19.4496L69.4611 19.0896C69.4611 18.043 69.6478 17.1463 70.0211 16.3996C70.4011 15.6463 70.9311 15.0696 71.6111 14.6696C72.2978 14.263 73.1045 14.0596 74.0311 14.0596C74.7311 14.0596 75.3278 14.1696 75.8211 14.3896C76.3145 14.6096 76.7245 14.903 77.0511 15.2696C77.3778 15.6296 77.6345 16.0363 77.8211 16.4896C78.0078 16.9363 78.1378 17.393 78.2111 17.8596C78.2911 18.3196 78.3311 18.7563 78.3311 19.1696V25.1396H76.5311ZM68.8311 25.1396V14.3396H70.4311V17.2296H70.6311V25.1396H68.8311ZM84.5933 25.4396C83.5866 25.4396 82.7233 25.1896 82.0033 24.6896C81.2833 24.183 80.7266 23.4996 80.3333 22.6396C79.9466 21.7796 79.7533 20.8096 79.7533 19.7296C79.7533 18.6496 79.9466 17.6796 80.3333 16.8196C80.7266 15.9596 81.2833 15.283 82.0033 14.7896C82.7233 14.2896 83.5833 14.0396 84.5833 14.0396C85.6033 14.0396 86.46 14.2863 87.1533 14.7796C87.8466 15.273 88.37 15.9496 88.7233 16.8096C89.0833 17.6696 89.2633 18.643 89.2633 19.7296C89.2633 20.803 89.0833 21.773 88.7233 22.6396C88.37 23.4996 87.8466 24.183 87.1533 24.6896C86.46 25.1896 85.6066 25.4396 84.5933 25.4396ZM84.8133 23.8096C85.54 23.8096 86.1366 23.6363 86.6033 23.2896C87.07 22.9363 87.4133 22.453 87.6333 21.8396C87.86 21.2196 87.9733 20.5163 87.9733 19.7296C87.9733 18.9296 87.86 18.2263 87.6333 17.6196C87.4133 17.0063 87.0733 16.5296 86.6133 16.1896C86.1533 15.843 85.57 15.6696 84.8633 15.6696C84.13 15.6696 83.5233 15.8496 83.0433 16.2096C82.57 16.5696 82.2166 17.0563 81.9833 17.6696C81.7566 18.283 81.6433 18.9696 81.6433 19.7296C81.6433 20.4963 81.76 21.1896 81.9933 21.8096C82.2266 22.423 82.5766 22.9096 83.0433 23.2696C83.5166 23.6296 84.1066 23.8096 84.8133 23.8096ZM87.9733 25.1396V17.1896H87.7733V10.7396H89.5633V25.1396H87.9733ZM96.565 25.4396C95.505 25.4396 94.5784 25.2063 93.785 24.7396C92.9984 24.2663 92.385 23.6096 91.945 22.7696C91.505 21.923 91.285 20.9363 91.285 19.8096C91.285 18.6296 91.5017 17.6096 91.935 16.7496C92.3684 15.883 92.9717 15.2163 93.745 14.7496C94.525 14.2763 95.4384 14.0396 96.485 14.0396C97.5717 14.0396 98.495 14.2896 99.255 14.7896C100.022 15.2896 100.595 16.003 100.975 16.9296C101.362 17.8563 101.528 18.9596 101.475 20.2396H99.675V19.5996C99.655 18.273 99.385 17.283 98.865 16.6296C98.345 15.9696 97.5717 15.6396 96.545 15.6396C95.445 15.6396 94.6084 15.993 94.035 16.6996C93.4617 17.4063 93.175 18.4196 93.175 19.7396C93.175 21.013 93.4617 21.9996 94.035 22.6996C94.6084 23.3996 95.425 23.7496 96.485 23.7496C97.1984 23.7496 97.8184 23.5863 98.345 23.2596C98.8717 22.933 99.285 22.463 99.585 21.8496L101.295 22.4396C100.875 23.393 100.242 24.133 99.395 24.6596C98.555 25.1796 97.6117 25.4396 96.565 25.4396ZM92.575 20.2396V18.8096H100.555V20.2396H92.575ZM107.301 25.4296C106.015 25.4296 104.958 25.1496 104.131 24.5896C103.311 24.023 102.808 23.233 102.621 22.2196L104.441 21.9296C104.588 22.5163 104.925 22.983 105.451 23.3296C105.978 23.6696 106.631 23.8396 107.411 23.8396C108.151 23.8396 108.731 23.6863 109.151 23.3796C109.571 23.073 109.781 22.6563 109.781 22.1296C109.781 21.823 109.711 21.5763 109.571 21.3896C109.431 21.1963 109.141 21.0163 108.701 20.8496C108.268 20.683 107.611 20.483 106.731 20.2496C105.778 19.9963 105.028 19.733 104.481 19.4596C103.935 19.1863 103.545 18.8696 103.311 18.5096C103.078 18.1496 102.961 17.713 102.961 17.1996C102.961 16.5663 103.135 16.013 103.481 15.5396C103.828 15.0596 104.311 14.6896 104.931 14.4296C105.558 14.1696 106.285 14.0396 107.111 14.0396C107.931 14.0396 108.665 14.1696 109.311 14.4296C109.958 14.6896 110.478 15.0596 110.871 15.5396C111.271 16.013 111.508 16.5663 111.581 17.1996L109.761 17.5296C109.675 16.9496 109.395 16.493 108.921 16.1596C108.455 15.8263 107.851 15.6496 107.111 15.6296C106.411 15.603 105.841 15.7263 105.401 15.9996C104.968 16.273 104.751 16.643 104.751 17.1096C104.751 17.3696 104.831 17.593 104.991 17.7796C105.158 17.9663 105.461 18.143 105.901 18.3096C106.348 18.4763 106.995 18.6663 107.841 18.8796C108.795 19.1196 109.545 19.383 110.091 19.6696C110.645 19.9496 111.038 20.283 111.271 20.6696C111.505 21.0496 111.621 21.5196 111.621 22.0796C111.621 23.1196 111.238 23.9396 110.471 24.5396C109.705 25.133 108.648 25.4296 107.301 25.4296Z" fill="white"/>
</g>
<defs>
<clipPath id="clip0_4091_52">
<rect width="113.28" height="34.28" fill="white"/>
</clipPath>
</defs>
</svg>
