<svg width="114" height="35" viewBox="0 0 114 35" fill="none" xmlns="http://www.w3.org/2000/svg">
<g clip-path="url(#clip0_4029_20)">
<path d="M15.8701 2.19922C16.6068 1.77392 17.5041 1.7469 18.2607 2.11914L18.4092 2.19922L29.4443 8.57031C30.23 9.02391 30.7139 9.86236 30.7139 10.7695V23.5107C30.7139 24.4179 30.23 25.2564 29.4443 25.71L18.4092 32.0811C17.6236 32.5344 16.6556 32.5346 15.8701 32.0811L4.83594 25.71C4.05029 25.2564 3.56641 24.4179 3.56641 23.5107V10.7695C3.56641 9.91911 3.99098 9.12836 4.69141 8.65918L4.83594 8.57031L15.8701 2.19922Z" stroke="#9DE500" stroke-width="2.53926"/>
<path d="M12.1093 23.9289C11.0792 23.9289 10.2306 23.7065 9.5637 23.2619C8.90222 22.8173 8.49557 22.1992 8.34376 21.4076L9.5637 21.2043C9.69383 21.7031 9.98933 22.1016 10.4502 22.3998C10.9165 22.6926 11.4912 22.839 12.1744 22.839C12.8413 22.839 13.3672 22.7008 13.7522 22.4242C14.1372 22.1423 14.3296 21.7601 14.3296 21.2775C14.3296 21.0064 14.2673 20.7868 14.1426 20.6187C14.0233 20.4452 13.7766 20.2853 13.4025 20.1389C13.0284 19.9925 12.4699 19.819 11.7271 19.6184C10.93 19.4015 10.3065 19.1846 9.85649 18.9677C9.40647 18.7508 9.08657 18.5014 8.8968 18.2195C8.70703 17.9321 8.61214 17.5824 8.61214 17.1703C8.61214 16.6715 8.75312 16.235 9.03506 15.8609C9.317 15.4814 9.70739 15.1886 10.2062 14.9826C10.705 14.7711 11.2852 14.6654 11.9467 14.6654C12.6082 14.6654 13.1992 14.7738 13.7197 14.9907C14.2456 15.2021 14.6685 15.5004 14.9884 15.8853C15.3083 16.2703 15.4981 16.7176 15.5577 17.2273L14.3378 17.4469C14.2564 16.9318 13.9989 16.5251 13.5651 16.2269C13.1368 15.9233 12.5919 15.766 11.9304 15.7552C11.3069 15.7389 10.7999 15.8582 10.4095 16.113C10.0192 16.3625 9.82396 16.6959 9.82396 17.1134C9.82396 17.3465 9.89445 17.5472 10.0354 17.7152C10.1764 17.8779 10.4312 18.0324 10.7999 18.1788C11.174 18.3252 11.7054 18.4852 12.394 18.6587C13.2019 18.8647 13.8362 19.0816 14.2971 19.3093C14.758 19.537 15.086 19.8054 15.2812 20.1145C15.4764 20.4235 15.574 20.8058 15.574 21.2612C15.574 22.0908 15.2649 22.7441 14.6468 23.2213C14.0341 23.693 13.1883 23.9289 12.1093 23.9289ZM20.3951 23.937C19.5764 23.937 18.8769 23.7337 18.2968 23.327C17.7166 22.9149 17.272 22.3592 16.963 21.6597C16.6539 20.9603 16.4994 20.1714 16.4994 19.293C16.4994 18.4201 16.6512 17.6339 16.9548 16.9345C17.2639 16.235 17.7058 15.682 18.2805 15.2753C18.8552 14.8687 19.5438 14.6654 20.3463 14.6654C21.1704 14.6654 21.8644 14.866 22.4283 15.2672C22.9922 15.6684 23.4178 16.2188 23.7052 16.9182C23.998 17.6122 24.1444 18.4038 24.1444 19.293C24.1444 20.166 24.0007 20.9549 23.7133 21.6597C23.426 22.3592 23.0031 22.9149 22.4446 23.327C21.8861 23.7337 21.203 23.937 20.3951 23.937ZM20.5171 22.8228C21.1406 22.8228 21.6557 22.6709 22.0623 22.3673C22.469 22.0637 22.7726 21.6462 22.9732 21.1148C23.1739 20.5781 23.2742 19.9708 23.2742 19.293C23.2742 18.6044 23.1739 17.9972 22.9732 17.4713C22.7726 16.9399 22.469 16.5251 22.0623 16.2269C21.6611 15.9287 21.1542 15.7796 20.5415 15.7796C19.9125 15.7796 19.392 15.9341 18.9799 16.2432C18.5679 16.5522 18.2615 16.9724 18.0609 17.5038C17.8657 18.0351 17.7681 18.6316 17.7681 19.293C17.7681 19.9599 17.8684 20.5618 18.069 21.0986C18.2751 21.6299 18.5814 22.0501 18.9881 22.3592C19.3947 22.6682 19.9044 22.8228 20.5171 22.8228ZM23.2742 23.693V17.0809H23.144V11.9815H24.3477V23.693H23.2742Z" fill="#0B0B0B"/>
<path d="M50.79 25.44C49.77 25.44 48.85 25.2667 48.03 24.92C47.2167 24.5733 46.5434 24.08 46.01 23.44C45.4834 22.7933 45.14 22.03 44.98 21.15L46.82 20.86C47.0534 21.7667 47.5367 22.4767 48.27 22.99C49.01 23.4967 49.88 23.75 50.88 23.75C51.5267 23.75 52.11 23.65 52.63 23.45C53.1567 23.2433 53.5734 22.95 53.88 22.57C54.1867 22.19 54.34 21.74 54.34 21.22C54.34 20.9 54.2834 20.6267 54.17 20.4C54.0634 20.1667 53.9134 19.97 53.72 19.81C53.5334 19.6433 53.32 19.5033 53.08 19.39C52.84 19.2767 52.59 19.1833 52.33 19.11L48.66 18.02C48.26 17.9 47.8734 17.75 47.5 17.57C47.1267 17.3833 46.7934 17.1533 46.5 16.88C46.2067 16.6 45.9734 16.2667 45.8 15.88C45.6267 15.4867 45.54 15.0233 45.54 14.49C45.54 13.6367 45.76 12.91 46.2 12.31C46.6467 11.7033 47.25 11.24 48.01 10.92C48.77 10.6 49.6267 10.4433 50.58 10.45C51.5467 10.4567 52.41 10.63 53.17 10.97C53.9367 11.3033 54.57 11.7833 55.07 12.41C55.5767 13.0367 55.9167 13.7867 56.09 14.66L54.2 14.99C54.1 14.4033 53.8767 13.9 53.53 13.48C53.19 13.0533 52.7634 12.7267 52.25 12.5C51.7367 12.2667 51.1734 12.1467 50.56 12.14C49.9734 12.1333 49.4434 12.2267 48.97 12.42C48.4967 12.6133 48.12 12.8833 47.84 13.23C47.56 13.57 47.42 13.9633 47.42 14.41C47.42 14.85 47.5467 15.2067 47.8 15.48C48.0534 15.7467 48.3634 15.96 48.73 16.12C49.1034 16.2733 49.4667 16.4 49.82 16.5L52.56 17.29C52.8734 17.3767 53.2334 17.4967 53.64 17.65C54.0534 17.8033 54.4534 18.02 54.84 18.3C55.2267 18.5733 55.5467 18.94 55.8 19.4C56.0534 19.8533 56.18 20.4267 56.18 21.12C56.18 21.8133 56.04 22.43 55.76 22.97C55.4867 23.51 55.1034 23.9633 54.61 24.33C54.1167 24.69 53.5434 24.9633 52.89 25.15C52.2367 25.3433 51.5367 25.44 50.79 25.44ZM62.4777 25.44C61.4177 25.44 60.491 25.2067 59.6977 24.74C58.911 24.2667 58.2977 23.61 57.8577 22.77C57.4177 21.9233 57.1977 20.9367 57.1977 19.81C57.1977 18.63 57.4144 17.61 57.8477 16.75C58.281 15.8833 58.8844 15.2167 59.6577 14.75C60.4377 14.2767 61.351 14.04 62.3977 14.04C63.4844 14.04 64.4077 14.29 65.1677 14.79C65.9344 15.29 66.5077 16.0033 66.8877 16.93C67.2744 17.8567 67.441 18.96 67.3877 20.24H65.5877V19.6C65.5677 18.2733 65.2977 17.2833 64.7777 16.63C64.2577 15.97 63.4844 15.64 62.4577 15.64C61.3577 15.64 60.521 15.9933 59.9477 16.7C59.3744 17.4067 59.0877 18.42 59.0877 19.74C59.0877 21.0133 59.3744 22 59.9477 22.7C60.521 23.4 61.3377 23.75 62.3977 23.75C63.111 23.75 63.731 23.5867 64.2577 23.26C64.7844 22.9333 65.1977 22.4633 65.4977 21.85L67.2077 22.44C66.7877 23.3933 66.1544 24.1333 65.3077 24.66C64.4677 25.18 63.5244 25.44 62.4777 25.44ZM58.4877 20.24V18.81H66.4677V20.24H58.4877ZM76.5311 25.14V19.73C76.5311 19.2167 76.4845 18.7233 76.3911 18.25C76.3045 17.7767 76.1478 17.3533 75.9211 16.98C75.7011 16.6 75.4011 16.3 75.0211 16.08C74.6478 15.86 74.1745 15.75 73.6011 15.75C73.1545 15.75 72.7478 15.8267 72.3811 15.98C72.0211 16.1267 71.7111 16.3533 71.4511 16.66C71.1911 16.9667 70.9878 17.3533 70.8411 17.82C70.7011 18.28 70.6311 18.8233 70.6311 19.45L69.4611 19.09C69.4611 18.0433 69.6478 17.1467 70.0211 16.4C70.4011 15.6467 70.9311 15.07 71.6111 14.67C72.2978 14.2633 73.1045 14.06 74.0311 14.06C74.7311 14.06 75.3278 14.17 75.8211 14.39C76.3145 14.61 76.7245 14.9033 77.0511 15.27C77.3778 15.63 77.6345 16.0367 77.8211 16.49C78.0078 16.9367 78.1378 17.3933 78.2111 17.86C78.2911 18.32 78.3311 18.7567 78.3311 19.17V25.14H76.5311ZM68.8311 25.14V14.34H70.4311V17.23H70.6311V25.14H68.8311ZM84.5933 25.44C83.5866 25.44 82.7233 25.19 82.0033 24.69C81.2833 24.1833 80.7266 23.5 80.3333 22.64C79.9466 21.78 79.7533 20.81 79.7533 19.73C79.7533 18.65 79.9466 17.68 80.3333 16.82C80.7266 15.96 81.2833 15.2833 82.0033 14.79C82.7233 14.29 83.5833 14.04 84.5833 14.04C85.6033 14.04 86.46 14.2867 87.1533 14.78C87.8466 15.2733 88.37 15.95 88.7233 16.81C89.0833 17.67 89.2633 18.6433 89.2633 19.73C89.2633 20.8033 89.0833 21.7733 88.7233 22.64C88.37 23.5 87.8466 24.1833 87.1533 24.69C86.46 25.19 85.6066 25.44 84.5933 25.44ZM84.8133 23.81C85.54 23.81 86.1366 23.6367 86.6033 23.29C87.07 22.9367 87.4133 22.4533 87.6333 21.84C87.86 21.22 87.9733 20.5167 87.9733 19.73C87.9733 18.93 87.86 18.2267 87.6333 17.62C87.4133 17.0067 87.0733 16.53 86.6133 16.19C86.1533 15.8433 85.57 15.67 84.8633 15.67C84.13 15.67 83.5233 15.85 83.0433 16.21C82.57 16.57 82.2166 17.0567 81.9833 17.67C81.7566 18.2833 81.6433 18.97 81.6433 19.73C81.6433 20.4967 81.76 21.19 81.9933 21.81C82.2266 22.4233 82.5766 22.91 83.0433 23.27C83.5166 23.63 84.1066 23.81 84.8133 23.81ZM87.9733 25.14V17.19H87.7733V10.74H89.5633V25.14H87.9733ZM96.565 25.44C95.505 25.44 94.5784 25.2067 93.785 24.74C92.9984 24.2667 92.385 23.61 91.945 22.77C91.505 21.9233 91.285 20.9367 91.285 19.81C91.285 18.63 91.5017 17.61 91.935 16.75C92.3684 15.8833 92.9717 15.2167 93.745 14.75C94.525 14.2767 95.4384 14.04 96.485 14.04C97.5717 14.04 98.495 14.29 99.255 14.79C100.022 15.29 100.595 16.0033 100.975 16.93C101.362 17.8567 101.528 18.96 101.475 20.24H99.675V19.6C99.655 18.2733 99.385 17.2833 98.865 16.63C98.345 15.97 97.5717 15.64 96.545 15.64C95.445 15.64 94.6084 15.9933 94.035 16.7C93.4617 17.4067 93.175 18.42 93.175 19.74C93.175 21.0133 93.4617 22 94.035 22.7C94.6084 23.4 95.425 23.75 96.485 23.75C97.1984 23.75 97.8184 23.5867 98.345 23.26C98.8717 22.9333 99.285 22.4633 99.585 21.85L101.295 22.44C100.875 23.3933 100.242 24.1333 99.395 24.66C98.555 25.18 97.6117 25.44 96.565 25.44ZM92.575 20.24V18.81H100.555V20.24H92.575ZM107.301 25.43C106.015 25.43 104.958 25.15 104.131 24.59C103.311 24.0233 102.808 23.2333 102.621 22.22L104.441 21.93C104.588 22.5167 104.925 22.9833 105.451 23.33C105.978 23.67 106.631 23.84 107.411 23.84C108.151 23.84 108.731 23.6867 109.151 23.38C109.571 23.0733 109.781 22.6567 109.781 22.13C109.781 21.8233 109.711 21.5767 109.571 21.39C109.431 21.1967 109.141 21.0167 108.701 20.85C108.268 20.6833 107.611 20.4833 106.731 20.25C105.778 19.9967 105.028 19.7333 104.481 19.46C103.935 19.1867 103.545 18.87 103.311 18.51C103.078 18.15 102.961 17.7133 102.961 17.2C102.961 16.5667 103.135 16.0133 103.481 15.54C103.828 15.06 104.311 14.69 104.931 14.43C105.558 14.17 106.285 14.04 107.111 14.04C107.931 14.04 108.665 14.17 109.311 14.43C109.958 14.69 110.478 15.06 110.871 15.54C111.271 16.0133 111.508 16.5667 111.581 17.2L109.761 17.53C109.675 16.95 109.395 16.4933 108.921 16.16C108.455 15.8267 107.851 15.65 107.111 15.63C106.411 15.6033 105.841 15.7267 105.401 16C104.968 16.2733 104.751 16.6433 104.751 17.11C104.751 17.37 104.831 17.5933 104.991 17.78C105.158 17.9667 105.461 18.1433 105.901 18.31C106.348 18.4767 106.995 18.6667 107.841 18.88C108.795 19.12 109.545 19.3833 110.091 19.67C110.645 19.95 111.038 20.2833 111.271 20.67C111.505 21.05 111.621 21.52 111.621 22.08C111.621 23.12 111.238 23.94 110.471 24.54C109.705 25.1333 108.648 25.43 107.301 25.43Z" fill="#0B0B0B"/>
</g>
<defs>
<clipPath id="clip0_4029_20">
<rect width="113.28" height="34.28" fill="white"/>
</clipPath>
</defs>
</svg>
