<svg width="140" height="34" viewBox="0 0 140 34" fill="none" xmlns="http://www.w3.org/2000/svg">
<g clip-path="url(#clip0_4051_33)">
<g clip-path="url(#clip1_4051_33)">
<path d="M56.7969 22.0346V11.174H58.7711V15.7717H63.8212V11.174H65.8008V22.0346H63.8212V17.421H58.7711V22.0346H56.7969Z" fill="#393939"/>
<path d="M71.4283 22.1936C70.63 22.1936 69.9383 22.0186 69.3529 21.6686C68.7675 21.3186 68.3134 20.829 67.9906 20.1997C67.6713 19.5704 67.5117 18.835 67.5117 17.9936C67.5117 17.1522 67.6713 16.4151 67.9906 15.7823C68.3134 15.1494 68.7675 14.658 69.3529 14.308C69.9383 13.958 70.63 13.783 71.4283 13.783C72.2265 13.783 72.9183 13.958 73.5036 14.308C74.089 14.658 74.5413 15.1494 74.8606 15.7823C75.1834 16.4151 75.3449 17.1522 75.3449 17.9936C75.3449 18.835 75.1834 19.5704 74.8606 20.1997C74.5413 20.829 74.089 21.3186 73.5036 21.6686C72.9183 22.0186 72.2265 22.1936 71.4283 22.1936ZM71.4389 20.6557C71.8717 20.6557 72.2336 20.5373 72.5245 20.3004C72.8154 20.06 73.0318 19.7383 73.1737 19.3353C73.3192 18.9323 73.3919 18.4833 73.3919 17.9883C73.3919 17.4898 73.3192 17.0391 73.1737 16.636C73.0318 16.2295 72.8154 15.906 72.5245 15.6656C72.2336 15.4252 71.8717 15.305 71.4389 15.305C70.9955 15.305 70.6265 15.4252 70.332 15.6656C70.0411 15.906 69.823 16.2295 69.6775 16.636C69.5356 17.0391 69.4646 17.4898 69.4646 17.9883C69.4646 18.4833 69.5356 18.9323 69.6775 19.3353C69.823 19.7383 70.0411 20.06 70.332 20.3004C70.6265 20.5373 70.9955 20.6557 71.4389 20.6557Z" fill="#393939"/>
<path d="M76.9795 22.0346V13.8892H78.8473V15.2467H78.9325C79.0815 14.7765 79.3369 14.4142 79.6988 14.1596C80.0642 13.9015 80.481 13.7725 80.9493 13.7725C81.0557 13.7725 81.1746 13.7778 81.3058 13.7884C81.4407 13.7955 81.5524 13.8079 81.6411 13.8255V15.5914C81.5595 15.5632 81.43 15.5384 81.2526 15.5172C81.0788 15.4925 80.9103 15.4801 80.7471 15.4801C80.3959 15.4801 80.0801 15.5561 79.7999 15.7081C79.5232 15.8566 79.305 16.0634 79.1453 16.3286C78.9857 16.5937 78.9059 16.8995 78.9059 17.246V22.0346H76.9795Z" fill="#393939"/>
<path d="M82.9215 22.0345V13.8891H84.8479V22.0345H82.9215ZM83.89 12.733C83.5849 12.733 83.3224 12.6323 83.1024 12.4307C82.8825 12.2257 82.7725 11.98 82.7725 11.6936C82.7725 11.4037 82.8825 11.158 83.1024 10.9565C83.3224 10.7515 83.5849 10.6489 83.89 10.6489C84.1987 10.6489 84.4612 10.7515 84.6776 10.9565C84.8976 11.158 85.0075 11.4037 85.0075 11.6936C85.0075 11.98 84.8976 12.2257 84.6776 12.4307C84.4612 12.6323 84.1987 12.733 83.89 12.733Z" fill="#393939"/>
<path d="M86.7227 22.0346V20.8149L90.9373 15.549V15.4801H86.861V13.8892H93.2947V15.199L89.2823 20.3748V20.4437H93.433V22.0346H86.7227Z" fill="#393939"/>
<path d="M98.5748 22.1936C97.7766 22.1936 97.0848 22.0186 96.4995 21.6686C95.9141 21.3186 95.46 20.829 95.1372 20.1997C94.8179 19.5704 94.6582 18.835 94.6582 17.9936C94.6582 17.1522 94.8179 16.4151 95.1372 15.7823C95.46 15.1494 95.9141 14.658 96.4995 14.308C97.0848 13.958 97.7766 13.783 98.5748 13.783C99.373 13.783 100.064 13.958 100.65 14.308C101.235 14.658 101.687 15.1494 102.007 15.7823C102.33 16.4151 102.491 17.1522 102.491 17.9936C102.491 18.835 102.33 19.5704 102.007 20.1997C101.687 20.829 101.235 21.3186 100.65 21.6686C100.064 22.0186 99.373 22.1936 98.5748 22.1936ZM98.5855 20.6557C99.0183 20.6557 99.3801 20.5373 99.671 20.3004C99.962 20.06 100.178 19.7383 100.32 19.3353C100.465 18.9323 100.538 18.4833 100.538 17.9883C100.538 17.4898 100.465 17.0391 100.32 16.636C100.178 16.2295 99.962 15.906 99.671 15.6656C99.3801 15.4252 99.0183 15.305 98.5855 15.305C98.142 15.305 97.7731 15.4252 97.4786 15.6656C97.1877 15.906 96.9695 16.2295 96.8241 16.636C96.6822 17.0391 96.6112 17.4898 96.6112 17.9883C96.6112 18.4833 96.6822 18.9323 96.8241 19.3353C96.9695 19.7383 97.1877 20.06 97.4786 20.3004C97.7731 20.5373 98.142 20.6557 98.5855 20.6557Z" fill="#393939"/>
<path d="M106.052 17.2618V22.0345H104.126V13.8891H105.967V15.2732H106.063C106.251 14.8171 106.551 14.4547 106.962 14.186C107.377 13.9174 107.89 13.783 108.5 13.783C109.064 13.783 109.556 13.9032 109.974 14.1436C110.397 14.384 110.723 14.7323 110.953 15.1883C111.188 15.6444 111.303 16.1977 111.299 16.8482V22.0345H109.373V17.1451C109.373 16.6007 109.231 16.1747 108.947 15.8671C108.667 15.5595 108.279 15.4057 107.782 15.4057C107.445 15.4057 107.145 15.48 106.883 15.6285C106.624 15.7734 106.42 15.9838 106.271 16.2595C106.125 16.5353 106.052 16.8694 106.052 17.2618Z" fill="#393939"/>
<path d="M39.9382 5.22119C38.4623 5.22119 37.0008 5.51092 35.6372 6.07373C34.2736 6.63661 33.0347 7.46157 31.991 8.50157C30.9474 9.54164 30.1196 10.7763 29.5547 12.1351C28.99 13.494 28.6992 14.9504 28.6992 16.4212C28.6992 17.892 28.99 19.3484 29.5547 20.7073C30.1196 22.0661 30.9474 23.3007 31.991 24.3408C33.0347 25.3808 34.2736 26.2058 35.6372 26.7686C37.0008 27.3315 38.4623 27.6212 39.9382 27.6212V22.0212C39.2002 22.0212 38.4695 21.8764 37.7877 21.5949C37.1059 21.3135 36.4864 20.901 35.9646 20.381C35.4428 19.861 35.0289 19.2436 34.7465 18.5642C34.464 17.8848 34.3187 17.1566 34.3187 16.4212C34.3187 15.6858 34.464 14.9576 34.7465 14.2781C35.0289 13.5987 35.4428 12.9814 35.9646 12.4614C36.4864 11.9414 37.1059 11.5289 37.7877 11.2475C38.4695 10.966 39.2002 10.8212 39.9382 10.8212V5.22119Z" fill="#393939"/>
<path opacity="0.6" d="M28.6992 16.4209C28.6992 17.8917 28.99 19.3481 29.5547 20.707C30.1196 22.0658 30.9474 23.3004 31.991 24.3405C33.0347 25.3805 34.2736 26.2055 35.6372 26.7683C37.0008 27.3312 38.4623 27.6209 39.9382 27.6209C41.4141 27.6209 42.8756 27.3312 44.2392 26.7683C45.6027 26.2055 46.8416 25.3805 47.8853 24.3405C48.9289 23.3004 49.7568 22.0658 50.3216 20.707C50.8864 19.3481 51.1771 17.8917 51.1771 16.4209H45.5576C45.5576 17.1563 45.4123 17.8845 45.1299 18.5639C44.8475 19.2434 44.4336 19.8607 43.9117 20.3807C43.3899 20.9007 42.7704 21.3132 42.0887 21.5946C41.4069 21.8761 40.6762 22.0209 39.9382 22.0209C39.2002 22.0209 38.4695 21.8761 37.7877 21.5946C37.1059 21.3132 36.4864 20.9007 35.9646 20.3807C35.4428 19.8607 35.0289 19.2434 34.7465 18.5639C34.464 17.8845 34.3187 17.1563 34.3187 16.4209H28.6992Z" fill="#393939"/>
<path opacity="0.6" d="M43.6841 16.4214C43.6841 15.4312 43.2894 14.4817 42.5868 13.7815C41.8842 13.0813 40.9314 12.688 39.9378 12.688C38.9442 12.688 37.9913 13.0813 37.2887 13.7815C36.5861 14.4817 36.1914 15.4312 36.1914 16.4214H39.9378H43.6841Z" fill="#393939"/>
<path d="M43.6857 16.4204C43.6857 15.4302 43.291 14.4807 42.5885 13.7805C41.8859 13.0804 40.933 12.687 39.9395 12.687V16.4204H43.6857Z" fill="#393939"/>
</g>
</g>
<defs>
<clipPath id="clip0_4051_33">
<rect width="140" height="34" fill="white"/>
</clipPath>
<clipPath id="clip1_4051_33">
<rect width="140" height="34" fill="white"/>
</clipPath>
</defs>
</svg>
