<svg width="140" height="34" viewBox="0 0 140 34" fill="none" xmlns="http://www.w3.org/2000/svg">
<g clip-path="url(#clip0_4051_47)">
<g clip-path="url(#clip1_4051_47)">
<path d="M54.3721 16.9185H56.2986L57.4396 18.4422L58.2537 19.4344L60.2089 22.0212H58.1448L56.8146 20.2849L56.247 19.458L54.3721 16.9185ZM60.4898 14.9342C60.4898 16.2374 60.2529 17.3536 59.7789 18.2828C59.3087 19.208 58.6666 19.9167 57.8524 20.4089C57.042 20.901 56.1228 21.1471 55.0945 21.1471C54.0663 21.1471 53.1451 20.901 52.3309 20.4089C51.5206 19.9128 50.8784 19.2021 50.4045 18.2769C49.9343 17.3477 49.6992 16.2334 49.6992 14.9342C49.6992 13.6309 49.9343 12.5167 50.4045 11.5914C50.8784 10.6623 51.5206 9.95158 52.3309 9.45942C53.1451 8.96727 54.0663 8.72119 55.0945 8.72119C56.1228 8.72119 57.042 8.96727 57.8524 9.45942C58.6666 9.95158 59.3087 10.6623 59.7789 11.5914C60.2529 12.5167 60.4898 13.6309 60.4898 14.9342ZM58.3512 14.9342C58.3512 14.0168 58.2117 13.2431 57.9327 12.6132C57.6574 11.9793 57.2752 11.5009 56.7859 11.178C56.2967 10.8512 55.7329 10.6878 55.0945 10.6878C54.4562 10.6878 53.8924 10.8512 53.4031 11.178C52.9139 11.5009 52.5297 11.9793 52.2507 12.6132C51.9755 13.2431 51.8378 14.0168 51.8378 14.9342C51.8378 15.8515 51.9755 16.6272 52.2507 17.2611C52.5297 17.891 52.9139 18.3694 53.4031 18.6962C53.8924 19.019 54.4562 19.1805 55.0945 19.1805C55.7329 19.1805 56.2967 19.019 56.7859 18.6962C57.2752 18.3694 57.6574 17.891 57.9327 17.2611C58.2117 16.6272 58.3512 15.8515 58.3512 14.9342Z" fill="#393939"/>
<path d="M68.038 17.1666V11.9104H70.1136V20.9818H68.1011V19.3695H68.0093C67.8106 19.8774 67.4838 20.2927 67.0289 20.6156C66.5779 20.9384 66.0217 21.0999 65.3604 21.0999C64.7832 21.0999 64.273 20.968 63.8296 20.7042C63.39 20.4364 63.046 20.0486 62.7975 19.5407C62.5491 19.0289 62.4248 18.4107 62.4248 17.6863V11.9104H64.5004V17.3556C64.5004 17.9304 64.6533 18.3871 64.9591 18.7257C65.2649 19.0643 65.6662 19.2336 66.1631 19.2336C66.4689 19.2336 66.7652 19.1568 67.0518 19.0033C67.3385 18.8497 67.5736 18.6214 67.7571 18.3182C67.9444 18.0111 68.038 17.6272 68.038 17.1666Z" fill="#393939"/>
<path d="M74.7821 21.1648C74.224 21.1648 73.7213 21.0625 73.2741 20.8577C72.8307 20.6491 72.4791 20.342 72.2191 19.9364C71.963 19.5309 71.835 19.0309 71.835 18.4363C71.835 17.9245 71.9267 17.5012 72.1102 17.1666C72.2937 16.8319 72.544 16.5642 72.8613 16.3634C73.1786 16.1626 73.536 16.011 73.9335 15.9086C74.3348 15.8023 74.7496 15.7255 75.1777 15.6783C75.6937 15.6232 76.1122 15.574 76.4333 15.5306C76.7544 15.4834 76.9876 15.4125 77.1328 15.318C77.2819 15.2196 77.3564 15.068 77.3564 14.8633V14.8278C77.3564 14.3829 77.2284 14.0384 76.9723 13.7943C76.7162 13.5502 76.3473 13.4282 75.8657 13.4282C75.3573 13.4282 74.9541 13.5423 74.6559 13.7707C74.3616 13.9991 74.1628 14.2688 74.0596 14.5798L72.1217 14.2963C72.2746 13.7451 72.5268 13.2845 72.8785 12.9144C73.2302 12.5403 73.6602 12.2608 74.1686 12.0757C74.6769 11.8867 75.2388 11.7922 75.8542 11.7922C76.2785 11.7922 76.7009 11.8434 77.1214 11.9458C77.5418 12.0482 77.926 12.2175 78.2738 12.4537C78.6217 12.686 78.9007 13.0029 79.1109 13.4045C79.325 13.8061 79.432 14.3081 79.432 14.9105V20.9818H77.4367V19.7356H77.3679C77.2418 19.9876 77.064 20.2238 76.8347 20.4443C76.6092 20.6609 76.3244 20.8361 75.9804 20.9699C75.6402 21.0999 75.2407 21.1648 74.7821 21.1648ZM75.321 19.5939C75.7377 19.5939 76.0989 19.5092 76.4047 19.3399C76.7105 19.1667 76.9455 18.9383 77.1099 18.6548C77.2781 18.3714 77.3622 18.0623 77.3622 17.7276V16.6587C77.2972 16.7138 77.1863 16.765 77.0296 16.8122C76.8767 16.8595 76.7047 16.9008 76.5136 16.9362C76.3225 16.9717 76.1333 17.0032 75.946 17.0307C75.7587 17.0583 75.5962 17.0819 75.4586 17.1016C75.149 17.1449 74.8719 17.2158 74.6272 17.3142C74.3826 17.4126 74.1896 17.5505 74.0482 17.7276C73.9067 17.9009 73.836 18.1253 73.836 18.4009C73.836 18.7946 73.9755 19.0919 74.2546 19.2927C74.5336 19.4935 74.8891 19.5939 75.321 19.5939Z" fill="#393939"/>
<path d="M83.5946 15.6665V20.9818H81.519V11.9104H83.5029V13.4518H83.6061C83.8086 12.9439 84.1316 12.5403 84.575 12.2411C85.0223 11.9419 85.5746 11.7922 86.232 11.7922C86.8398 11.7922 87.3692 11.9261 87.8202 12.1938C88.2751 12.4616 88.6268 12.8494 88.8752 13.3573C89.1275 13.8652 89.2517 14.4814 89.2479 15.2058V20.9818H87.1724V15.5366C87.1724 14.9302 87.0195 14.4558 86.7137 14.1132C86.4117 13.7707 85.9931 13.5994 85.458 13.5994C85.0949 13.5994 84.7719 13.6821 84.489 13.8475C84.21 14.0089 83.9902 14.2432 83.8297 14.5503C83.6729 14.8574 83.5946 15.2294 83.5946 15.6665Z" fill="#393939"/>
<path d="M95.7556 11.9105V13.5641H90.6929V11.9105H95.7556ZM91.9428 9.73706H94.0184V18.2533C94.0184 18.5408 94.0604 18.7613 94.1445 18.9148C94.2324 19.0644 94.3471 19.1668 94.4885 19.2219C94.6299 19.277 94.7867 19.3046 94.9587 19.3046C95.0886 19.3046 95.2071 19.2947 95.3142 19.2751C95.425 19.2554 95.5091 19.2377 95.5664 19.2219L95.9162 20.8933C95.8053 20.9326 95.6467 20.9759 95.4403 21.0232C95.2377 21.0704 94.9892 21.098 94.6949 21.1059C94.1751 21.1216 93.7068 21.0409 93.2902 20.8637C92.8736 20.6826 92.5429 20.4031 92.2983 20.0251C92.0575 19.6471 91.939 19.1747 91.9428 18.6077V9.73706Z" fill="#393939"/>
<path d="M103.105 17.1666V11.9104H105.18V20.9818H103.168V19.3695H103.076C102.877 19.8774 102.551 20.2927 102.096 20.6156C101.645 20.9384 101.088 21.0999 100.427 21.0999C99.8501 21.0999 99.3398 20.968 98.8964 20.7042C98.4568 20.4364 98.1128 20.0486 97.8644 19.5407C97.6159 19.0289 97.4917 18.4107 97.4917 17.6863V11.9104H99.5672V17.3556C99.5672 17.9304 99.7201 18.3871 100.026 18.7257C100.332 19.0643 100.733 19.2336 101.23 19.2336C101.536 19.2336 101.832 19.1568 102.119 19.0033C102.405 18.8497 102.64 18.6214 102.824 18.3182C103.011 18.0111 103.105 17.6272 103.105 17.1666Z" fill="#393939"/>
<path d="M107.315 20.9818V11.9104H109.298V13.4518H109.402C109.585 12.9321 109.889 12.5265 110.313 12.2352C110.738 11.9399 111.244 11.7922 111.833 11.7922C112.429 11.7922 112.932 11.9419 113.341 12.2411C113.753 12.5364 114.044 12.9399 114.212 13.4518H114.304C114.499 12.9478 114.828 12.5462 115.29 12.247C115.756 11.9438 116.309 11.7922 116.947 11.7922C117.757 11.7922 118.419 12.056 118.931 12.5836C119.443 13.1112 119.699 13.8809 119.699 14.8928V20.9818H117.618V15.2235C117.618 14.6605 117.473 14.2491 117.182 13.9892C116.892 13.7254 116.536 13.5935 116.116 13.5935C115.615 13.5935 115.223 13.755 114.94 14.0778C114.661 14.3967 114.522 14.8121 114.522 15.3239V20.9818H112.486V15.135C112.486 14.6664 112.349 14.2924 112.074 14.0128C111.802 13.7333 111.447 13.5935 111.007 13.5935C110.709 13.5935 110.438 13.6723 110.193 13.8298C109.948 13.9833 109.753 14.2018 109.608 14.4853C109.463 14.7649 109.39 15.0916 109.39 15.4657V20.9818H107.315Z" fill="#393939"/>
<path d="M44.4586 16.4212C44.4586 13.4508 43.3224 10.602 41.3 8.5016C39.2776 6.40119 36.5347 5.22119 33.6746 5.22119C30.8145 5.22119 28.0716 6.40119 26.0492 8.5016C24.0268 10.602 22.8906 13.4508 22.8906 16.4212H26.2607C27.3774 16.4212 28.2483 15.4493 28.6573 14.37C28.9259 13.6615 29.3334 13.0103 29.8619 12.4614C30.8731 11.4112 32.2446 10.8212 33.6746 10.8212C35.1046 10.8212 36.4761 11.4112 37.4873 12.4614C38.4985 13.5116 39.0666 14.936 39.0666 16.4212H44.4586Z" fill="#393939"/>
<path d="M38.2472 20.7069C38.7892 19.3481 39.0681 17.8917 39.0681 16.4209H44.4596C44.4596 22.6065 39.6314 27.6209 33.6756 27.6209C32.7428 27.6209 31.8377 27.4979 30.9746 27.2667C31.463 27.136 31.943 26.9696 32.411 26.7683C33.7194 26.2055 34.9082 25.3805 35.9096 24.3405C36.911 23.3005 37.7053 22.0658 38.2472 20.7069Z" fill="#393939"/>
<path d="M17.5 16.4209C17.5 17.8917 17.7789 19.3481 18.3209 20.707C18.8628 22.0659 19.6572 23.3005 20.6586 24.3406C21.6599 25.3805 22.8488 26.2055 24.1571 26.7684C25.4655 27.3313 26.8678 27.6209 28.284 27.6209C29.7001 27.6209 31.1024 27.3313 32.4108 26.7684C33.7192 26.2055 34.908 25.3805 35.9094 24.3406C36.9108 23.3005 37.7051 22.0659 38.2471 20.707C38.789 19.3481 39.068 17.8917 39.068 16.4209H35.6979C34.5812 16.4209 33.7103 17.3928 33.3013 18.472C33.2896 18.5028 33.2777 18.5334 33.2655 18.564C32.9945 19.2434 32.5974 19.8608 32.0967 20.3807C31.596 20.9007 31.0016 21.3133 30.3474 21.5947C29.6932 21.8761 28.9921 22.0209 28.284 22.0209C27.5759 22.0209 26.8747 21.8761 26.2206 21.5947C25.5664 21.3133 24.972 20.9007 24.4713 20.3807C23.9706 19.8608 23.5734 19.2434 23.3024 18.564C23.0315 17.8845 22.892 17.1563 22.892 16.4209H17.5Z" fill="#393939"/>
<path d="M17.5 16.4212C17.5 10.2356 22.3281 5.22119 28.2839 5.22119C29.2164 5.22119 30.1213 5.34411 30.9843 5.5752C29.1325 6.07066 27.4241 7.07335 26.0489 8.50161C24.0265 10.602 22.8904 13.4508 22.8904 16.4212H17.5Z" fill="#393939"/>
</g>
</g>
<defs>
<clipPath id="clip0_4051_47">
<rect width="140" height="34" fill="white"/>
</clipPath>
<clipPath id="clip1_4051_47">
<rect width="140" height="34" fill="white"/>
</clipPath>
</defs>
</svg>
