<svg width="140" height="34" viewBox="0 0 140 34" fill="none" xmlns="http://www.w3.org/2000/svg">
<g clip-path="url(#clip0_4051_61)">
<g clip-path="url(#clip1_4051_61)">
<path d="M26.7252 7.32129V25.2585H23.8183L15.3181 13.0405H15.1684V25.2585H11.9004V7.32129H14.8248L23.3163 19.548H23.4748V7.32129H26.7252Z" fill="#393939"/>
<path d="M36.0466 25.5213C34.7253 25.5213 33.5802 25.2323 32.6113 24.6542C31.6423 24.0761 30.8907 23.2674 30.3563 22.2281C29.8278 21.1888 29.5635 19.9743 29.5635 18.5846C29.5635 17.1949 29.8278 15.9775 30.3563 14.9324C30.8907 13.8872 31.6423 13.0756 32.6113 12.4975C33.5802 11.9195 34.7253 11.6304 36.0466 11.6304C37.3679 11.6304 38.513 11.9195 39.4819 12.4975C40.4508 13.0756 41.1996 13.8872 41.7281 14.9324C42.2625 15.9775 42.5297 17.1949 42.5297 18.5846C42.5297 19.9743 42.2625 21.1888 41.7281 22.2281C41.1996 23.2674 40.4508 24.0761 39.4819 24.6542C38.513 25.2323 37.3679 25.5213 36.0466 25.5213ZM36.0642 22.9813C36.7806 22.9813 37.3796 22.7857 37.8611 22.3945C38.3427 21.9975 38.7009 21.4661 38.9358 20.8005C39.1766 20.1349 39.2969 19.3933 39.2969 18.5759C39.2969 17.7526 39.1766 17.0081 38.9358 16.3425C38.7009 15.671 38.3427 15.1367 37.8611 14.7397C37.3796 14.3426 36.7806 14.1441 36.0642 14.1441C35.3302 14.1441 34.7194 14.3426 34.232 14.7397C33.7505 15.1367 33.3893 15.671 33.1486 16.3425C32.9137 17.0081 32.7962 17.7526 32.7962 18.5759C32.7962 19.3933 32.9137 20.1349 33.1486 20.8005C33.3893 21.4661 33.7505 21.9975 34.232 22.3945C34.7194 22.7857 35.3302 22.9813 36.0642 22.9813Z" fill="#393939"/>
<path d="M56.8611 11.8055L52.0429 25.2584H48.5195L43.7012 11.8055H47.1013L50.2107 21.7989H50.3516L53.4699 11.8055H56.8611Z" fill="#393939"/>
<path d="M64.5095 25.5213C63.1882 25.5213 62.0431 25.2323 61.0741 24.6542C60.1052 24.0761 59.3535 23.2674 58.8191 22.2281C58.2906 21.1888 58.0264 19.9743 58.0264 18.5846C58.0264 17.1949 58.2906 15.9775 58.8191 14.9324C59.3535 13.8872 60.1052 13.0756 61.0741 12.4975C62.0431 11.9195 63.1882 11.6304 64.5095 11.6304C65.8307 11.6304 66.9758 11.9195 67.9448 12.4975C68.9137 13.0756 69.6624 13.8872 70.191 14.9324C70.7253 15.9775 70.9925 17.1949 70.9925 18.5846C70.9925 19.9743 70.7253 21.1888 70.191 22.2281C69.6624 23.2674 68.9137 24.0761 67.9448 24.6542C66.9758 25.2323 65.8307 25.5213 64.5095 25.5213ZM64.5271 22.9813C65.2435 22.9813 65.8425 22.7857 66.324 22.3945C66.8056 21.9975 67.1638 21.4661 67.3987 20.8005C67.6394 20.1349 67.7598 19.3933 67.7598 18.5759C67.7598 17.7526 67.6394 17.0081 67.3987 16.3425C67.1638 15.671 66.8056 15.1367 66.324 14.7397C65.8425 14.3426 65.2435 14.1441 64.5271 14.1441C63.793 14.1441 63.1823 14.3426 62.6949 14.7397C62.2134 15.1367 61.8522 15.671 61.6115 16.3425C61.3766 17.0081 61.2591 17.7526 61.2591 18.5759C61.2591 19.3933 61.3766 20.1349 61.6115 20.8005C61.8522 21.4661 62.2134 21.9975 62.6949 22.3945C63.1823 22.7857 63.793 22.9813 64.5271 22.9813Z" fill="#393939"/>
<path d="M72.0537 10.0452V7.32129H86.4468V10.0452H80.871V25.2585H77.6295V10.0452H72.0537Z" fill="#393939"/>
<path d="M93.1083 25.5213C91.7518 25.5213 90.5802 25.241 89.5937 24.6805C88.613 24.1141 87.8584 23.3142 87.3299 22.2807C86.8014 21.2413 86.5371 20.0181 86.5371 18.6109C86.5371 17.2271 86.8014 16.0126 87.3299 14.9674C87.8642 13.9164 88.61 13.0989 89.5672 12.515C90.5244 11.9253 91.649 11.6304 92.9409 11.6304C93.7748 11.6304 94.5617 11.7647 95.3016 12.0333C96.0474 12.2961 96.7051 12.7048 97.2747 13.2595C97.8502 13.8142 98.3024 14.5207 98.6312 15.379C98.9601 16.2315 99.1245 17.2475 99.1245 18.427V19.3991H88.0346V17.2621H96.0679C96.0621 16.6548 95.9299 16.1147 95.6715 15.6418C95.4132 15.163 95.052 14.7864 94.5881 14.5119C94.1301 14.2375 93.5957 14.1003 92.9849 14.1003C92.3331 14.1003 91.7606 14.258 91.2673 14.5733C90.774 14.8827 90.3894 15.2914 90.1134 15.7994C89.8432 16.3016 89.7052 16.8534 89.6994 17.4548V19.3203C89.6994 20.1027 89.8432 20.7742 90.131 21.3348C90.4187 21.8895 90.821 22.3157 91.3378 22.6135C91.8545 22.9054 92.4594 23.0514 93.1523 23.0514C93.6162 23.0514 94.0361 22.9872 94.4119 22.8587C94.7878 22.7244 95.1137 22.5288 95.3897 22.2719C95.6657 22.015 95.8741 21.6968 96.0151 21.3172L98.9924 21.6501C98.8044 22.4325 98.4462 23.1156 97.9177 23.6995C97.3951 24.2776 96.7256 24.7272 95.9094 25.0483C95.0931 25.3636 94.1594 25.5213 93.1083 25.5213Z" fill="#393939"/>
<path d="M107.724 25.5213C106.373 25.5213 105.214 25.2264 104.245 24.6367C103.282 24.0469 102.539 23.2324 102.016 22.1931C101.499 21.1479 101.241 19.9451 101.241 18.5846C101.241 17.2183 101.505 16.0126 102.034 14.9674C102.562 13.9164 103.308 13.0989 104.271 12.515C105.24 11.9253 106.385 11.6304 107.706 11.6304C108.805 11.6304 109.776 11.8319 110.622 12.2348C111.474 12.6318 112.152 13.1953 112.657 13.9251C113.162 14.6492 113.45 15.4958 113.52 16.4651H110.472C110.349 15.817 110.055 15.2769 109.591 14.8448C109.133 14.4068 108.52 14.1879 107.75 14.1879C107.099 14.1879 106.526 14.3631 106.033 14.7134C105.54 15.0579 105.155 15.5542 104.879 16.2023C104.609 16.8504 104.474 17.627 104.474 18.5321C104.474 19.4488 104.609 20.237 104.879 20.8968C105.149 21.5508 105.528 22.0559 106.015 22.412C106.508 22.7624 107.087 22.9375 107.75 22.9375C108.22 22.9375 108.64 22.85 109.01 22.6748C109.386 22.4938 109.7 22.234 109.953 21.8953C110.205 21.5566 110.378 21.145 110.472 20.6604H113.52C113.444 21.6121 113.162 22.4558 112.674 23.1915C112.187 23.9214 111.523 24.4936 110.684 24.9082C109.844 25.3169 108.857 25.5213 107.724 25.5213Z" fill="#393939"/>
<path d="M119.327 17.376V25.2585H116.138V7.32129H119.257V14.0915H119.415C119.732 13.3325 120.223 12.734 120.886 12.2961C121.556 11.8523 122.407 11.6304 123.441 11.6304C124.38 11.6304 125.199 11.826 125.898 12.2172C126.597 12.6085 127.137 13.1807 127.519 13.9339C127.907 14.6871 128.1 15.6068 128.1 16.6928V25.2585H124.912V17.1833C124.912 16.2782 124.677 15.5746 124.207 15.0725C123.743 14.5645 123.091 14.3105 122.251 14.3105C121.688 14.3105 121.183 14.4331 120.736 14.6784C120.296 14.9178 119.95 15.2652 119.697 15.7206C119.45 16.176 119.327 16.7278 119.327 17.376Z" fill="#393939"/>
</g>
</g>
<defs>
<clipPath id="clip0_4051_61">
<rect width="140" height="34" fill="white"/>
</clipPath>
<clipPath id="clip1_4051_61">
<rect width="140" height="34" fill="white"/>
</clipPath>
</defs>
</svg>
