<svg width="140" height="34" viewBox="0 0 140 34" fill="none" xmlns="http://www.w3.org/2000/svg">
<g clip-path="url(#clip0_4051_72)">
<g clip-path="url(#clip1_4051_72)">
<path d="M25.1232 22.3507H21.6992V9.57195C21.6992 7.42999 22.7101 6.35901 24.7319 6.35901H26.5417C27.7319 6.35901 28.5797 6.74846 29.0852 7.52735C29.558 6.74846 30.4059 6.35901 31.6287 6.35901H33.4385C35.4603 6.35901 36.4712 7.42999 36.4712 9.57195V22.3507H33.0472V9.27987C33.0472 9.15005 32.9983 9.03646 32.9005 8.9391C32.8189 8.84174 32.713 8.79306 32.5825 8.79306H31.2618C31.1314 8.79306 31.0173 8.84174 30.9195 8.9391C30.8379 9.03646 30.7972 9.15005 30.7972 9.27987V22.3507H27.3732V9.27987C27.3732 9.15005 27.3243 9.03646 27.2265 8.9391C27.1449 8.84174 27.039 8.79306 26.9085 8.79306H25.5879C25.4574 8.79306 25.3433 8.84174 25.2455 8.9391C25.1639 9.03646 25.1232 9.15005 25.1232 9.27987V22.3507Z" fill="#393939"/>
<path d="M41.9057 8.9878C41.5633 9.32857 41.1476 9.49895 40.6584 9.49895C40.1693 9.49895 39.7454 9.32857 39.3867 8.9878C39.028 8.63081 38.8486 8.20891 38.8486 7.7221C38.8486 7.21906 39.028 6.79716 39.3867 6.45639C39.7454 6.0994 40.1693 5.9209 40.6584 5.9209C41.1476 5.9209 41.5633 6.0994 41.9057 6.45639C42.2644 6.79716 42.4438 7.21906 42.4438 7.7221C42.4438 8.22513 42.2644 8.64704 41.9057 8.9878ZM39.0198 22.3507V10.4726H42.297V22.3507H39.0198Z" fill="#393939"/>
<path d="M47.7533 22.3507H44.4761V10.4726H47.4598V11.0811C47.9653 10.5131 48.7316 10.2292 49.7588 10.2292H50.2724C52.2941 10.2292 53.305 11.3002 53.305 13.4421V22.3507H50.0278V13.0527C50.0278 12.9229 49.9789 12.8093 49.8811 12.7119C49.7995 12.6145 49.6936 12.5659 49.5631 12.5659H48.218C48.0876 12.5659 47.9734 12.6145 47.8756 12.7119C47.7941 12.8093 47.7533 12.9229 47.7533 13.0527V22.3507Z" fill="#393939"/>
<path d="M58.9584 10.2292C59.7899 10.2292 60.4584 10.4239 60.9638 10.8133V6.60242H64.2411V22.3507H61.4774V21.4745C60.972 22.2209 60.1323 22.5942 58.9584 22.5942H58.4448C56.423 22.5942 55.4121 21.5232 55.4121 19.3812V13.4421C55.4121 11.3002 56.423 10.2292 58.4448 10.2292H58.9584ZM60.9638 19.7707V13.0527C60.9638 12.9229 60.9149 12.8093 60.8171 12.7119C60.7356 12.6145 60.6296 12.5659 60.4992 12.5659H59.154C59.0236 12.5659 58.9095 12.6145 58.8116 12.7119C58.7301 12.8093 58.6894 12.9229 58.6894 13.0527V19.7707C58.6894 19.9005 58.7301 20.0141 58.8116 20.1114C58.9095 20.2088 59.0236 20.2575 59.154 20.2575H60.4992C60.6296 20.2575 60.7356 20.2088 60.8171 20.1114C60.9149 20.0141 60.9638 19.9005 60.9638 19.7707Z" fill="#393939"/>
<path d="M71.9731 14.9025C73.9948 14.9025 75.0057 15.9735 75.0057 18.1155V19.3812C75.0057 21.5232 73.9948 22.5942 71.9731 22.5942H69.2583C67.2366 22.5942 66.2257 21.5232 66.2257 19.3812V18.6266H69.2583V19.6976C69.2583 19.8274 69.2991 19.941 69.3806 20.0384C69.4785 20.1358 69.5926 20.1844 69.723 20.1844H71.7285C71.8589 20.1844 71.9649 20.1358 72.0464 20.0384C72.1443 19.941 72.1932 19.8274 72.1932 19.6976V18.2372C72.1932 18.1074 72.1443 17.9938 72.0464 17.8964C71.9649 17.7991 71.8589 17.7504 71.7285 17.7504H69.2094C67.1877 17.7504 66.1768 16.6794 66.1768 14.5374V13.4421C66.1768 11.3002 67.1877 10.2292 69.2094 10.2292H71.7774C73.7992 10.2292 74.8101 11.3002 74.8101 13.4421V13.8802H71.7774V13.1257C71.7774 12.9959 71.7285 12.8823 71.6307 12.7849C71.5491 12.6876 71.4432 12.6389 71.3127 12.6389H69.454C69.3236 12.6389 69.2094 12.6876 69.1116 12.7849C69.0301 12.8823 68.9893 12.9959 68.9893 13.1257V14.4157C68.9893 14.5456 69.0301 14.6591 69.1116 14.7565C69.2094 14.8539 69.3236 14.9025 69.454 14.9025H71.9731Z" fill="#393939"/>
<path d="M85.6352 15.146H82.358V13.0527C82.358 12.9229 82.309 12.8093 82.2112 12.7119C82.1297 12.6145 82.0236 12.5659 81.8932 12.5659H80.548C80.4176 12.5659 80.3035 12.6145 80.2057 12.7119C80.1241 12.8093 80.0835 12.9229 80.0835 13.0527V19.7707C80.0835 19.9005 80.1241 20.0141 80.2057 20.1114C80.3035 20.2088 80.4176 20.2575 80.548 20.2575H81.8932C82.0236 20.2575 82.1297 20.2088 82.2112 20.1114C82.309 20.0141 82.358 19.9005 82.358 19.7707V17.6774H85.6352V19.3812C85.6352 21.5232 84.6243 22.5942 82.6025 22.5942H79.8389C77.8171 22.5942 76.8062 21.5232 76.8062 19.3812V13.4421C76.8062 11.3002 77.8171 10.2292 79.8389 10.2292H82.6025C84.6243 10.2292 85.6352 11.3002 85.6352 13.4421V15.146Z" fill="#393939"/>
<path d="M96.4275 13.4421V19.3812C96.4275 21.5232 95.4166 22.5942 93.3949 22.5942H90.6312C88.6095 22.5942 87.5986 21.5232 87.5986 19.3812V13.4421C87.5986 11.3002 88.6095 10.2292 90.6312 10.2292H93.3949C95.4166 10.2292 96.4275 11.3002 96.4275 13.4421ZM93.1503 20.0627V12.7362C93.1503 12.6064 93.1014 12.4928 93.0036 12.3955C92.922 12.2981 92.8161 12.2494 92.6856 12.2494H91.3405C91.2101 12.2494 91.0959 12.2981 90.9981 12.3955C90.9166 12.4928 90.8758 12.6064 90.8758 12.7362V20.0627C90.8758 20.1926 90.9166 20.3061 90.9981 20.4035C91.0959 20.5009 91.2101 20.5495 91.3405 20.5495H92.6856C92.8161 20.5495 92.922 20.5009 93.0036 20.4035C93.1014 20.3061 93.1503 20.1926 93.1503 20.0627Z" fill="#393939"/>
<path d="M104.331 22.5942H103.817C102.986 22.5942 102.317 22.3994 101.812 22.01V26.2209H98.5342V10.4726H101.298V11.3488C101.804 10.6024 102.643 10.2292 103.817 10.2292H104.331C106.352 10.2292 107.363 11.3002 107.363 13.4421V19.3812C107.363 21.5232 106.352 22.5942 104.331 22.5942ZM101.812 13.0527V19.7707C101.812 19.9005 101.852 20.0141 101.934 20.1114C102.032 20.2088 102.146 20.2575 102.276 20.2575H103.621C103.752 20.2575 103.858 20.2088 103.939 20.1114C104.037 20.0141 104.086 19.9005 104.086 19.7707V13.0527C104.086 12.9229 104.037 12.8093 103.939 12.7119C103.858 12.6145 103.752 12.5659 103.621 12.5659H102.276C102.146 12.5659 102.032 12.6145 101.934 12.7119C101.852 12.8093 101.812 12.9229 101.812 13.0527Z" fill="#393939"/>
<path d="M115.267 10.2292C117.288 10.2292 118.299 11.3002 118.299 13.4421V17.2879H112.748V19.7707C112.748 19.9005 112.788 20.0141 112.87 20.1114C112.968 20.2088 113.082 20.2575 113.212 20.2575H114.557C114.688 20.2575 114.794 20.2088 114.875 20.1114C114.973 20.0141 115.022 19.9005 115.022 19.7707V18.4563H118.299V19.3812C118.299 21.5232 117.288 22.5942 115.267 22.5942H112.503C110.481 22.5942 109.47 21.5232 109.47 19.3812V13.4421C109.47 11.3002 110.481 10.2292 112.503 10.2292H115.267ZM112.748 15.146H115.022V12.9553C115.022 12.8255 114.973 12.7119 114.875 12.6145C114.794 12.5172 114.688 12.4685 114.557 12.4685H113.212C113.082 12.4685 112.968 12.5172 112.87 12.6145C112.788 12.7119 112.748 12.8255 112.748 12.9553V15.146Z" fill="#393939"/>
</g>
</g>
<defs>
<clipPath id="clip0_4051_72">
<rect width="140" height="34" fill="white"/>
</clipPath>
<clipPath id="clip1_4051_72">
<rect width="140" height="34" fill="white"/>
</clipPath>
</defs>
</svg>
